<mxfile host="app.diagrams.net" agent="Mozilla/5.0 (Windows NT 10.0; Win64; x64) AppleWebKit/537.36 (KHTML, like Gecko) Chrome/133.0.0.0 Safari/537.36 Edg/133.0.0.0" version="26.0.16">
  <diagram name="Страница — 1" id="NQL-UZS9WfE-CQvaboaO">
    <mxGraphModel dx="2087" dy="971" grid="1" gridSize="10" guides="1" tooltips="1" connect="1" arrows="1" fold="1" page="1" pageScale="1" pageWidth="827" pageHeight="1169" math="0" shadow="0">
      <root>
        <mxCell id="0" />
        <mxCell id="1" parent="0" />
        <mxCell id="qm5ofsAHym2DxorXkHXq-5" value="Arrow" style="swimlane;fontStyle=0;childLayout=stackLayout;horizontal=1;startSize=26;fillColor=none;horizontalStack=0;resizeParent=1;resizeParentMax=0;resizeLast=0;collapsible=1;marginBottom=0;whiteSpace=wrap;html=1;" vertex="1" parent="1">
          <mxGeometry x="-290" y="520" width="240" height="96" as="geometry" />
        </mxCell>
        <mxCell id="qm5ofsAHym2DxorXkHXq-6" value="+ Arrow(pos: Point, element_size: Size, border_size: Integer, color: Color, text: String)" style="text;strokeColor=none;fillColor=none;align=left;verticalAlign=top;spacingLeft=4;spacingRight=4;overflow=hidden;rotatable=0;points=[[0,0.5],[1,0.5]];portConstraint=eastwest;whiteSpace=wrap;html=1;" vertex="1" parent="qm5ofsAHym2DxorXkHXq-5">
          <mxGeometry y="26" width="240" height="44" as="geometry" />
        </mxCell>
        <mxCell id="qm5ofsAHym2DxorXkHXq-7" value="+ Clone(): Arrow" style="text;strokeColor=none;fillColor=none;align=left;verticalAlign=top;spacingLeft=4;spacingRight=4;overflow=hidden;rotatable=0;points=[[0,0.5],[1,0.5]];portConstraint=eastwest;whiteSpace=wrap;html=1;" vertex="1" parent="qm5ofsAHym2DxorXkHXq-5">
          <mxGeometry y="70" width="240" height="26" as="geometry" />
        </mxCell>
        <mxCell id="qm5ofsAHym2DxorXkHXq-21" value="&lt;i&gt;Element&lt;/i&gt;" style="swimlane;fontStyle=1;align=center;verticalAlign=top;childLayout=stackLayout;horizontal=1;startSize=26;horizontalStack=0;resizeParent=1;resizeParentMax=0;resizeLast=0;collapsible=1;marginBottom=0;whiteSpace=wrap;html=1;" vertex="1" parent="1">
          <mxGeometry x="110" y="110" width="230" height="310" as="geometry" />
        </mxCell>
        <mxCell id="qm5ofsAHym2DxorXkHXq-22" value="+ hitbox: Panel" style="text;strokeColor=none;fillColor=none;align=left;verticalAlign=top;spacingLeft=4;spacingRight=4;overflow=hidden;rotatable=0;points=[[0,0.5],[1,0.5]];portConstraint=eastwest;whiteSpace=wrap;html=1;" vertex="1" parent="qm5ofsAHym2DxorXkHXq-21">
          <mxGeometry y="26" width="230" height="26" as="geometry" />
        </mxCell>
        <mxCell id="qm5ofsAHym2DxorXkHXq-25" value="+ lable: Label" style="text;strokeColor=none;fillColor=none;align=left;verticalAlign=top;spacingLeft=4;spacingRight=4;overflow=hidden;rotatable=0;points=[[0,0.5],[1,0.5]];portConstraint=eastwest;whiteSpace=wrap;html=1;" vertex="1" parent="qm5ofsAHym2DxorXkHXq-21">
          <mxGeometry y="52" width="230" height="26" as="geometry" />
        </mxCell>
        <mxCell id="qm5ofsAHym2DxorXkHXq-26" value="+ Color: color" style="text;strokeColor=none;fillColor=none;align=left;verticalAlign=top;spacingLeft=4;spacingRight=4;overflow=hidden;rotatable=0;points=[[0,0.5],[1,0.5]];portConstraint=eastwest;whiteSpace=wrap;html=1;" vertex="1" parent="qm5ofsAHym2DxorXkHXq-21">
          <mxGeometry y="78" width="230" height="26" as="geometry" />
        </mxCell>
        <mxCell id="qm5ofsAHym2DxorXkHXq-27" value="+ Integer: border_size" style="text;strokeColor=none;fillColor=none;align=left;verticalAlign=top;spacingLeft=4;spacingRight=4;overflow=hidden;rotatable=0;points=[[0,0.5],[1,0.5]];portConstraint=eastwest;whiteSpace=wrap;html=1;" vertex="1" parent="qm5ofsAHym2DxorXkHXq-21">
          <mxGeometry y="104" width="230" height="26" as="geometry" />
        </mxCell>
        <mxCell id="qm5ofsAHym2DxorXkHXq-28" value="&lt;u&gt;+ Element: Selected&lt;/u&gt;" style="text;strokeColor=none;fillColor=none;align=left;verticalAlign=top;spacingLeft=4;spacingRight=4;overflow=hidden;rotatable=0;points=[[0,0.5],[1,0.5]];portConstraint=eastwest;whiteSpace=wrap;html=1;" vertex="1" parent="qm5ofsAHym2DxorXkHXq-21">
          <mxGeometry y="130" width="230" height="26" as="geometry" />
        </mxCell>
        <mxCell id="qm5ofsAHym2DxorXkHXq-23" value="" style="line;strokeWidth=1;fillColor=none;align=left;verticalAlign=middle;spacingTop=-1;spacingLeft=3;spacingRight=3;rotatable=0;labelPosition=right;points=[];portConstraint=eastwest;strokeColor=inherit;" vertex="1" parent="qm5ofsAHym2DxorXkHXq-21">
          <mxGeometry y="156" width="230" height="8" as="geometry" />
        </mxCell>
        <mxCell id="qm5ofsAHym2DxorXkHXq-29" value="+ Create(panel: Panel)" style="text;strokeColor=none;fillColor=none;align=left;verticalAlign=top;spacingLeft=4;spacingRight=4;overflow=hidden;rotatable=0;points=[[0,0.5],[1,0.5]];portConstraint=eastwest;whiteSpace=wrap;html=1;" vertex="1" parent="qm5ofsAHym2DxorXkHXq-21">
          <mxGeometry y="164" width="230" height="26" as="geometry" />
        </mxCell>
        <mxCell id="qm5ofsAHym2DxorXkHXq-30" value="# Draw(sender: object, e: PaintEventArgs)" style="text;strokeColor=none;fillColor=none;align=left;verticalAlign=top;spacingLeft=4;spacingRight=4;overflow=hidden;rotatable=0;points=[[0,0.5],[1,0.5]];portConstraint=eastwest;whiteSpace=wrap;html=1;" vertex="1" parent="qm5ofsAHym2DxorXkHXq-21">
          <mxGeometry y="190" width="230" height="40" as="geometry" />
        </mxCell>
        <mxCell id="qm5ofsAHym2DxorXkHXq-24" value="# Select(sender: object, e: MouseEventArgs)" style="text;strokeColor=none;fillColor=none;align=left;verticalAlign=top;spacingLeft=4;spacingRight=4;overflow=hidden;rotatable=0;points=[[0,0.5],[1,0.5]];portConstraint=eastwest;whiteSpace=wrap;html=1;" vertex="1" parent="qm5ofsAHym2DxorXkHXq-21">
          <mxGeometry y="230" width="230" height="40" as="geometry" />
        </mxCell>
        <mxCell id="qm5ofsAHym2DxorXkHXq-31" value="+ Clone() : Element" style="text;strokeColor=none;fillColor=none;align=left;verticalAlign=top;spacingLeft=4;spacingRight=4;overflow=hidden;rotatable=0;points=[[0,0.5],[1,0.5]];portConstraint=eastwest;whiteSpace=wrap;html=1;" vertex="1" parent="qm5ofsAHym2DxorXkHXq-21">
          <mxGeometry y="270" width="230" height="40" as="geometry" />
        </mxCell>
        <mxCell id="qm5ofsAHym2DxorXkHXq-32" value="Action" style="swimlane;fontStyle=0;childLayout=stackLayout;horizontal=1;startSize=26;fillColor=none;horizontalStack=0;resizeParent=1;resizeParentMax=0;resizeLast=0;collapsible=1;marginBottom=0;whiteSpace=wrap;html=1;" vertex="1" parent="1">
          <mxGeometry x="-20" y="520" width="240" height="96" as="geometry" />
        </mxCell>
        <mxCell id="qm5ofsAHym2DxorXkHXq-33" value="+ Action(pos: Point, element_size: Size, border_size: Integer, color: Color, text: String)" style="text;strokeColor=none;fillColor=none;align=left;verticalAlign=top;spacingLeft=4;spacingRight=4;overflow=hidden;rotatable=0;points=[[0,0.5],[1,0.5]];portConstraint=eastwest;whiteSpace=wrap;html=1;" vertex="1" parent="qm5ofsAHym2DxorXkHXq-32">
          <mxGeometry y="26" width="240" height="44" as="geometry" />
        </mxCell>
        <mxCell id="qm5ofsAHym2DxorXkHXq-34" value="+ Clone(): Action" style="text;strokeColor=none;fillColor=none;align=left;verticalAlign=top;spacingLeft=4;spacingRight=4;overflow=hidden;rotatable=0;points=[[0,0.5],[1,0.5]];portConstraint=eastwest;whiteSpace=wrap;html=1;" vertex="1" parent="qm5ofsAHym2DxorXkHXq-32">
          <mxGeometry y="70" width="240" height="26" as="geometry" />
        </mxCell>
        <mxCell id="qm5ofsAHym2DxorXkHXq-35" value="Condition" style="swimlane;fontStyle=0;childLayout=stackLayout;horizontal=1;startSize=26;fillColor=none;horizontalStack=0;resizeParent=1;resizeParentMax=0;resizeLast=0;collapsible=1;marginBottom=0;whiteSpace=wrap;html=1;" vertex="1" parent="1">
          <mxGeometry x="520" y="520" width="240" height="96" as="geometry" />
        </mxCell>
        <mxCell id="qm5ofsAHym2DxorXkHXq-36" value="+ Condition(pos: Point, element_size: Size, border_size: Integer, color: Color, text: String)" style="text;strokeColor=none;fillColor=none;align=left;verticalAlign=top;spacingLeft=4;spacingRight=4;overflow=hidden;rotatable=0;points=[[0,0.5],[1,0.5]];portConstraint=eastwest;whiteSpace=wrap;html=1;" vertex="1" parent="qm5ofsAHym2DxorXkHXq-35">
          <mxGeometry y="26" width="240" height="44" as="geometry" />
        </mxCell>
        <mxCell id="qm5ofsAHym2DxorXkHXq-37" value="+ Clone(): Condition" style="text;strokeColor=none;fillColor=none;align=left;verticalAlign=top;spacingLeft=4;spacingRight=4;overflow=hidden;rotatable=0;points=[[0,0.5],[1,0.5]];portConstraint=eastwest;whiteSpace=wrap;html=1;" vertex="1" parent="qm5ofsAHym2DxorXkHXq-35">
          <mxGeometry y="70" width="240" height="26" as="geometry" />
        </mxCell>
        <mxCell id="qm5ofsAHym2DxorXkHXq-38" value="StartStop" style="swimlane;fontStyle=0;childLayout=stackLayout;horizontal=1;startSize=26;fillColor=none;horizontalStack=0;resizeParent=1;resizeParentMax=0;resizeLast=0;collapsible=1;marginBottom=0;whiteSpace=wrap;html=1;" vertex="1" parent="1">
          <mxGeometry x="250" y="520" width="240" height="96" as="geometry" />
        </mxCell>
        <mxCell id="qm5ofsAHym2DxorXkHXq-39" value="+ StartStop(pos: Point, element_size: Size, border_size: Integer, color: Color, text: String)" style="text;strokeColor=none;fillColor=none;align=left;verticalAlign=top;spacingLeft=4;spacingRight=4;overflow=hidden;rotatable=0;points=[[0,0.5],[1,0.5]];portConstraint=eastwest;whiteSpace=wrap;html=1;" vertex="1" parent="qm5ofsAHym2DxorXkHXq-38">
          <mxGeometry y="26" width="240" height="44" as="geometry" />
        </mxCell>
        <mxCell id="qm5ofsAHym2DxorXkHXq-40" value="+ Clone(): StartStop" style="text;strokeColor=none;fillColor=none;align=left;verticalAlign=top;spacingLeft=4;spacingRight=4;overflow=hidden;rotatable=0;points=[[0,0.5],[1,0.5]];portConstraint=eastwest;whiteSpace=wrap;html=1;" vertex="1" parent="qm5ofsAHym2DxorXkHXq-38">
          <mxGeometry y="70" width="240" height="26" as="geometry" />
        </mxCell>
        <mxCell id="qm5ofsAHym2DxorXkHXq-52" value="" style="group" vertex="1" connectable="0" parent="1">
          <mxGeometry x="-170" y="470" width="810" as="geometry" />
        </mxCell>
        <mxCell id="qm5ofsAHym2DxorXkHXq-41" value="" style="endArrow=block;endFill=0;endSize=12;html=1;rounded=0;exitX=0.5;exitY=0;exitDx=0;exitDy=0;entryX=0.487;entryY=1.075;entryDx=0;entryDy=0;entryPerimeter=0;" edge="1" parent="qm5ofsAHym2DxorXkHXq-52" source="qm5ofsAHym2DxorXkHXq-5" target="qm5ofsAHym2DxorXkHXq-31">
          <mxGeometry width="160" relative="1" as="geometry">
            <mxPoint y="-70" as="sourcePoint" />
            <mxPoint x="160" y="-70" as="targetPoint" />
            <Array as="points">
              <mxPoint />
              <mxPoint x="392" />
            </Array>
          </mxGeometry>
        </mxCell>
        <mxCell id="qm5ofsAHym2DxorXkHXq-43" value="" style="endArrow=none;html=1;rounded=0;entryX=0.5;entryY=0;entryDx=0;entryDy=0;" edge="1" parent="qm5ofsAHym2DxorXkHXq-52" target="qm5ofsAHym2DxorXkHXq-35">
          <mxGeometry width="50" height="50" relative="1" as="geometry">
            <mxPoint x="390" as="sourcePoint" />
            <mxPoint x="820" as="targetPoint" />
            <Array as="points">
              <mxPoint x="810" />
            </Array>
          </mxGeometry>
        </mxCell>
        <mxCell id="qm5ofsAHym2DxorXkHXq-47" value="" style="endArrow=none;html=1;rounded=0;exitX=0.5;exitY=0;exitDx=0;exitDy=0;" edge="1" parent="qm5ofsAHym2DxorXkHXq-52" source="qm5ofsAHym2DxorXkHXq-32">
          <mxGeometry width="50" height="50" relative="1" as="geometry">
            <mxPoint x="50" y="-70" as="sourcePoint" />
            <mxPoint x="270" as="targetPoint" />
          </mxGeometry>
        </mxCell>
        <mxCell id="qm5ofsAHym2DxorXkHXq-51" value="" style="endArrow=none;html=1;rounded=0;exitX=0.5;exitY=0;exitDx=0;exitDy=0;" edge="1" parent="qm5ofsAHym2DxorXkHXq-52" source="qm5ofsAHym2DxorXkHXq-38">
          <mxGeometry width="50" height="50" relative="1" as="geometry">
            <mxPoint x="539.5" y="-10" as="sourcePoint" />
            <mxPoint x="540" as="targetPoint" />
          </mxGeometry>
        </mxCell>
        <mxCell id="qm5ofsAHym2DxorXkHXq-57" value="MainForm" style="html=1;whiteSpace=wrap;" vertex="1" parent="1">
          <mxGeometry x="530" y="176" width="110" height="50" as="geometry" />
        </mxCell>
        <mxCell id="qm5ofsAHym2DxorXkHXq-58" value="" style="endArrow=diamondThin;endFill=0;endSize=24;html=1;rounded=0;exitX=1;exitY=0.5;exitDx=0;exitDy=0;entryX=0;entryY=0.5;entryDx=0;entryDy=0;" edge="1" parent="1" source="qm5ofsAHym2DxorXkHXq-26" target="qm5ofsAHym2DxorXkHXq-57">
          <mxGeometry width="160" relative="1" as="geometry">
            <mxPoint x="-140" y="360" as="sourcePoint" />
            <mxPoint x="440" y="220" as="targetPoint" />
          </mxGeometry>
        </mxCell>
      </root>
    </mxGraphModel>
  </diagram>
</mxfile>
